<svg xmlns="http://www.w3.org/2000/svg" viewBox="0 0 1200 675" role="img" aria-labelledby="title desc">
  <title id="title">科研写作与数据可视化封面</title>
  <desc id="desc">深蓝渐变背景上的论文页面、公式、代码和数据曲线</desc>
  <defs>
    <linearGradient id="bg" x1="0" x2="1" y1="0" y2="1">
      <stop offset="0" stop-color="#0f172a"/>
      <stop offset="0.55" stop-color="#1e3a8a"/>
      <stop offset="1" stop-color="#0ea5e9"/>
    </linearGradient>
    <linearGradient id="glass" x1="0" x2="1">
      <stop offset="0" stop-color="#ffffff" stop-opacity=".96"/>
      <stop offset="1" stop-color="#dbeafe" stop-opacity=".9"/>
    </linearGradient>
    <filter id="shadow" x="-20%" y="-20%" width="140%" height="140%">
      <feDropShadow dx="0" dy="18" stdDeviation="22" flood-color="#020617" flood-opacity=".35"/>
    </filter>
  </defs>
  <rect width="1200" height="675" fill="url(#bg)"/>
  <circle cx="1060" cy="80" r="180" fill="#38bdf8" opacity=".12"/>
  <circle cx="120" cy="620" r="240" fill="#818cf8" opacity=".13"/>

  <g filter="url(#shadow)">
    <rect x="120" y="105" width="625" height="465" rx="28" fill="url(#glass)"/>
    <rect x="168" y="158" width="300" height="18" rx="9" fill="#1e3a8a" opacity=".9"/>
    <rect x="168" y="203" width="510" height="10" rx="5" fill="#94a3b8"/>
    <rect x="168" y="230" width="450" height="10" rx="5" fill="#cbd5e1"/>

    <rect x="168" y="280" width="525" height="122" rx="18" fill="#0f172a"/>
    <text x="198" y="328" fill="#7dd3fc" font-family="ui-monospace, monospace" font-size="25">E = mc²</text>
    <text x="198" y="370" fill="#c4b5fd" font-family="ui-monospace, monospace" font-size="23">∇ · E = ρ / ε₀</text>

    <rect x="168" y="438" width="525" height="10" rx="5" fill="#cbd5e1"/>
    <rect x="168" y="465" width="475" height="10" rx="5" fill="#cbd5e1"/>
    <rect x="168" y="492" width="365" height="10" rx="5" fill="#cbd5e1"/>
  </g>

  <g filter="url(#shadow)">
    <rect x="690" y="185" width="390" height="315" rx="26" fill="#0b1224" stroke="#60a5fa" stroke-opacity=".42"/>
    <circle cx="735" cy="228" r="8" fill="#f87171"/>
    <circle cx="765" cy="228" r="8" fill="#fbbf24"/>
    <circle cx="795" cy="228" r="8" fill="#4ade80"/>
    <path d="M742 423C780 376 819 402 852 337C887 268 932 351 1009 272" fill="none" stroke="#38bdf8" stroke-width="8" stroke-linecap="round"/>
    <path d="M742 423H1020M742 423V275" fill="none" stroke="#64748b" stroke-width="3"/>
    <circle cx="852" cy="337" r="10" fill="#c4b5fd"/>
    <circle cx="1009" cy="272" r="10" fill="#7dd3fc"/>
  </g>

  <text x="120" y="630" fill="#e0f2fe" font-family="system-ui, sans-serif" font-size="26" letter-spacing="5">PHYSICS · RESEARCH · CODE</text>
</svg>
